<svg width="163" height="16" viewBox="0 0 163 16" fill="none" xmlns="http://www.w3.org/2000/svg">
<path d="M11.36 3.8H0.48V8.92H2.016V5.336H5.12V15H6.72V5.336H9.824V7.64H11.36V3.8ZM21.5256 3.8V8.632H15.1256V3.8H13.5256V15H15.1256V10.168H21.5256V15H23.1256V3.8H21.5256ZM31.306 13.624C29.258 13.624 27.626 12.168 27.306 10.152H32.186V8.648H27.306C27.626 6.632 29.258 5.176 31.306 5.176C32.986 5.176 34.186 6.104 34.826 7.48H36.602C35.866 5.16 33.786 3.64 31.306 3.64C28.09 3.64 25.61 6.152 25.61 9.4C25.61 12.648 28.09 15.16 31.306 15.16C33.786 15.16 35.866 13.64 36.602 11.32H34.826C34.186 12.696 32.986 13.624 31.306 13.624ZM48.6191 15L43.3231 3.8H41.6431L42.5871 5.848C42.2511 6.712 41.4351 7.576 39.9791 8.616C38.6511 9.512 37.5471 10.52 37.5471 12.04C37.5471 13.896 38.8911 15.16 40.9231 15.16C42.6991 15.16 44.4431 13.928 45.6591 12.424L46.8591 15H48.6191ZM40.9551 13.624C39.9151 13.624 39.2271 12.952 39.2271 12.008C39.2271 11.064 39.9151 10.424 41.0031 9.592C42.1231 8.728 42.8751 8.136 43.3071 7.368L44.9711 10.936C43.8991 12.52 42.4431 13.624 40.9551 13.624ZM58.7025 3.8H47.8225V8.92H49.3585V5.336H52.4625V15H54.0625V5.336H57.1665V7.64H58.7025V3.8ZM67.3236 9.784C68.6836 9.304 69.4036 8.12 69.4036 7.048C69.4036 4.984 67.7396 3.64 65.1636 3.64C62.2676 3.64 60.3956 5.352 60.3956 7.992V15H61.9956V10.488H63.4676C66.5876 10.488 68.0436 11.576 68.0436 13.88V15H69.6436V13.896C69.6436 12.104 68.8916 10.408 67.3236 9.784ZM61.9956 9.064V8.12C61.9956 6.28 63.2116 5.16 65.1636 5.16C66.7636 5.16 67.7236 5.896 67.7236 7.112C67.7236 8.296 66.7476 9.064 64.9716 9.064H61.9956ZM76.9454 13.624C74.8974 13.624 73.2654 12.168 72.9454 10.152H77.8254V8.648H72.9454C73.2654 6.632 74.8974 5.176 76.9454 5.176C78.6254 5.176 79.8254 6.104 80.4654 7.48H82.2414C81.5054 5.16 79.4254 3.64 76.9454 3.64C73.7294 3.64 71.2494 6.152 71.2494 9.4C71.2494 12.648 73.7294 15.16 76.9454 15.16C79.4254 15.16 81.5054 13.64 82.2414 11.32H80.4654C79.8254 12.696 78.6254 13.624 76.9454 13.624ZM116.305 5.672L113.265 13.384L109.121 3.8H107.297L112.177 15H114.241L117.937 5.992C118.161 5.448 118.529 5.304 118.993 5.304H119.473V3.8C117.729 3.512 116.945 4.04 116.305 5.672ZM129.632 15L124.336 3.8H122.656L123.6 5.848C123.264 6.712 122.448 7.576 120.992 8.616C119.664 9.512 118.56 10.52 118.56 12.04C118.56 13.896 119.904 15.16 121.936 15.16C123.712 15.16 125.456 13.928 126.672 12.424L127.872 15H129.632ZM121.968 13.624C120.928 13.624 120.24 12.952 120.24 12.008C120.24 11.064 120.928 10.424 122.016 9.592C123.136 8.728 123.888 8.136 124.32 7.368L125.984 10.936C124.912 12.52 123.456 13.624 121.968 13.624ZM138 9.784C139.36 9.304 140.08 8.12 140.08 7.048C140.08 4.984 138.416 3.64 135.84 3.64C132.944 3.64 131.072 5.352 131.072 7.992V15H132.672V10.488H134.144C137.264 10.488 138.72 11.576 138.72 13.88V15H140.32V13.896C140.32 12.104 139.568 10.408 138 9.784ZM132.672 9.064V8.12C132.672 6.28 133.888 5.16 135.84 5.16C137.44 5.16 138.4 5.896 138.4 7.112C138.4 8.296 137.424 9.064 135.648 9.064H132.672ZM152.41 3.8H141.53V8.92H143.066V5.336H146.17V15H147.77V5.336H150.874V7.64H152.41V3.8ZM162.998 15L157.702 3.8H156.022L156.966 5.848C156.63 6.712 155.814 7.576 154.358 8.616C153.03 9.512 151.926 10.52 151.926 12.04C151.926 13.896 153.27 15.16 155.302 15.16C157.078 15.16 158.822 13.928 160.038 12.424L161.238 15H162.998ZM155.334 13.624C154.294 13.624 153.606 12.952 153.606 12.008C153.606 11.064 154.294 10.424 155.382 9.592C156.502 8.728 157.254 8.136 157.686 7.368L159.35 10.936C158.278 12.52 156.822 13.624 155.334 13.624Z" fill="#B11212"/>
<rect x="89" y="2" width="14" height="14" rx="7" fill="#B11212"/>
</svg>
