<svg width="163" height="16" viewBox="0 0 163 16" fill="none" xmlns="http://www.w3.org/2000/svg">
<path d="M11.36 7.64H9.824V5.336H6.72V15H5.12V5.336H2.016V8.92H0.48V3.8H11.36V7.64ZM23.1256 3.8V15H21.5256V10.168H15.1256V15H13.5256V3.8H15.1256V8.632H21.5256V3.8H23.1256ZM31.306 13.624C32.1167 13.624 32.8207 13.4213 33.418 13.016C34.026 12.6 34.4953 12.0347 34.826 11.32H36.602C36.3567 12.088 35.9727 12.7653 35.45 13.352C34.938 13.928 34.3247 14.376 33.61 14.696C32.8953 15.0053 32.1273 15.16 31.306 15.16C30.25 15.16 29.2847 14.9093 28.41 14.408C27.546 13.896 26.8633 13.2027 26.362 12.328C25.8607 11.4427 25.61 10.4667 25.61 9.4C25.61 8.33333 25.8607 7.36267 26.362 6.488C26.8633 5.60267 27.546 4.90933 28.41 4.408C29.2847 3.896 30.25 3.64 31.306 3.64C32.1273 3.64 32.8953 3.8 33.61 4.12C34.3247 4.42933 34.938 4.87733 35.45 5.464C35.9727 6.04 36.3567 6.712 36.602 7.48H34.826C34.4953 6.76533 34.026 6.20533 33.418 5.8C32.8207 5.384 32.1167 5.176 31.306 5.176C30.634 5.176 30.01 5.32533 29.434 5.624C28.8687 5.92267 28.3993 6.33867 28.026 6.872C27.6527 7.39467 27.4127 7.98667 27.306 8.648H32.186V10.152H27.306C27.4127 10.8133 27.6527 11.4107 28.026 11.944C28.3993 12.4667 28.8687 12.8773 29.434 13.176C30.01 13.4747 30.634 13.624 31.306 13.624ZM46.8591 15L45.6591 12.424C45.0085 13.2347 44.2671 13.896 43.4351 14.408C42.6031 14.9093 41.7658 15.16 40.9231 15.16C40.2511 15.16 39.6591 15.032 39.1471 14.776C38.6458 14.5093 38.2511 14.1413 37.9631 13.672C37.6858 13.192 37.5471 12.648 37.5471 12.04C37.5471 11.3467 37.7605 10.7333 38.1871 10.2C38.6138 9.66667 39.2111 9.13867 39.9791 8.616C40.7045 8.09333 41.2751 7.608 41.6911 7.16C42.1178 6.712 42.4165 6.27467 42.5871 5.848L41.6431 3.8H43.3231L48.6191 15H46.8591ZM40.9551 13.624C41.6805 13.624 42.3898 13.384 43.0831 12.904C43.7871 12.4133 44.4165 11.7573 44.9711 10.936L43.3071 7.368C43.1151 7.72 42.8485 8.05067 42.5071 8.36C42.1765 8.65867 41.6751 9.06933 41.0031 9.592C40.3845 10.0613 39.9311 10.472 39.6431 10.824C39.3658 11.176 39.2271 11.5707 39.2271 12.008C39.2271 12.488 39.3871 12.8773 39.7071 13.176C40.0271 13.4747 40.4431 13.624 40.9551 13.624ZM58.7025 7.64H57.1665V5.336H54.0625V15H52.4625V5.336H49.3585V8.92H47.8225V3.8H58.7025V7.64ZM67.3236 9.784C68.081 10.0827 68.657 10.6107 69.0516 11.368C69.4463 12.1147 69.6436 12.9573 69.6436 13.896V15H68.0436V13.88C68.0436 12.728 67.6703 11.8747 66.9236 11.32C66.177 10.7653 65.025 10.488 63.4676 10.488H61.9956V15H60.3956V7.992C60.3956 7.11733 60.5876 6.35467 60.9716 5.704C61.3663 5.04267 61.921 4.536 62.6356 4.184C63.361 3.82133 64.2036 3.64 65.1636 3.64C66.017 3.64 66.7636 3.784 67.4036 4.072C68.0436 4.34933 68.5343 4.744 68.8756 5.256C69.2276 5.768 69.4036 6.36533 69.4036 7.048C69.4036 7.61333 69.217 8.152 68.8436 8.664C68.481 9.176 67.9743 9.54933 67.3236 9.784ZM64.9716 9.064C65.8463 9.064 66.5236 8.888 67.0036 8.536C67.4836 8.184 67.7236 7.70933 67.7236 7.112C67.7236 6.504 67.4943 6.02933 67.0356 5.688C66.5876 5.336 65.9636 5.16 65.1636 5.16C64.1823 5.16 63.409 5.42667 62.8436 5.96C62.2783 6.48267 61.9956 7.20267 61.9956 8.12V9.064H64.9716ZM76.9454 13.624C77.756 13.624 78.46 13.4213 79.0574 13.016C79.6654 12.6 80.1347 12.0347 80.4654 11.32H82.2414C81.996 12.088 81.612 12.7653 81.0894 13.352C80.5774 13.928 79.964 14.376 79.2494 14.696C78.5347 15.0053 77.7667 15.16 76.9454 15.16C75.8894 15.16 74.924 14.9093 74.0494 14.408C73.1854 13.896 72.5027 13.2027 72.0014 12.328C71.5 11.4427 71.2494 10.4667 71.2494 9.4C71.2494 8.33333 71.5 7.36267 72.0014 6.488C72.5027 5.60267 73.1854 4.90933 74.0494 4.408C74.924 3.896 75.8894 3.64 76.9454 3.64C77.7667 3.64 78.5347 3.8 79.2494 4.12C79.964 4.42933 80.5774 4.87733 81.0894 5.464C81.612 6.04 81.996 6.712 82.2414 7.48H80.4654C80.1347 6.76533 79.6654 6.20533 79.0574 5.8C78.46 5.384 77.756 5.176 76.9454 5.176C76.2734 5.176 75.6494 5.32533 75.0734 5.624C74.508 5.92267 74.0387 6.33867 73.6654 6.872C73.292 7.39467 73.052 7.98667 72.9454 8.648H77.8254V10.152H72.9454C73.052 10.8133 73.292 11.4107 73.6654 11.944C74.0387 12.4667 74.508 12.8773 75.0734 13.176C75.6494 13.4747 76.2734 13.624 76.9454 13.624ZM116.305 5.672C116.572 4.97867 116.881 4.48267 117.233 4.184C117.596 3.87467 118.07 3.72 118.657 3.72C118.86 3.72 119.132 3.74667 119.473 3.8V5.304H118.993C118.737 5.304 118.524 5.35733 118.353 5.464C118.182 5.56 118.044 5.736 117.937 5.992L114.241 15H112.177L107.297 3.8H109.121L113.265 13.384L116.305 5.672ZM127.872 15L126.672 12.424C126.021 13.2347 125.28 13.896 124.448 14.408C123.616 14.9093 122.778 15.16 121.936 15.16C121.264 15.16 120.672 15.032 120.16 14.776C119.658 14.5093 119.264 14.1413 118.976 13.672C118.698 13.192 118.56 12.648 118.56 12.04C118.56 11.3467 118.773 10.7333 119.2 10.2C119.626 9.66667 120.224 9.13867 120.992 8.616C121.717 8.09333 122.288 7.608 122.704 7.16C123.13 6.712 123.429 6.27467 123.6 5.848L122.656 3.8H124.336L129.632 15H127.872ZM121.968 13.624C122.693 13.624 123.402 13.384 124.096 12.904C124.8 12.4133 125.429 11.7573 125.984 10.936L124.32 7.368C124.128 7.72 123.861 8.05067 123.52 8.36C123.189 8.65867 122.688 9.06933 122.016 9.592C121.397 10.0613 120.944 10.472 120.656 10.824C120.378 11.176 120.24 11.5707 120.24 12.008C120.24 12.488 120.4 12.8773 120.72 13.176C121.04 13.4747 121.456 13.624 121.968 13.624ZM138 9.784C138.758 10.0827 139.334 10.6107 139.728 11.368C140.123 12.1147 140.32 12.9573 140.32 13.896V15H138.72V13.88C138.72 12.728 138.347 11.8747 137.6 11.32C136.854 10.7653 135.702 10.488 134.144 10.488H132.672V15H131.072V7.992C131.072 7.11733 131.264 6.35467 131.648 5.704C132.043 5.04267 132.598 4.536 133.312 4.184C134.038 3.82133 134.88 3.64 135.84 3.64C136.694 3.64 137.44 3.784 138.08 4.072C138.72 4.34933 139.211 4.744 139.552 5.256C139.904 5.768 140.08 6.36533 140.08 7.048C140.08 7.61333 139.894 8.152 139.52 8.664C139.158 9.176 138.651 9.54933 138 9.784ZM135.648 9.064C136.523 9.064 137.2 8.888 137.68 8.536C138.16 8.184 138.4 7.70933 138.4 7.112C138.4 6.504 138.171 6.02933 137.712 5.688C137.264 5.336 136.64 5.16 135.84 5.16C134.859 5.16 134.086 5.42667 133.52 5.96C132.955 6.48267 132.672 7.20267 132.672 8.12V9.064H135.648ZM152.41 7.64H150.874V5.336H147.77V15H146.17V5.336H143.066V8.92H141.53V3.8H152.41V7.64ZM161.238 15L160.038 12.424C159.387 13.2347 158.646 13.896 157.814 14.408C156.982 14.9093 156.145 15.16 155.302 15.16C154.63 15.16 154.038 15.032 153.526 14.776C153.025 14.5093 152.63 14.1413 152.342 13.672C152.065 13.192 151.926 12.648 151.926 12.04C151.926 11.3467 152.139 10.7333 152.566 10.2C152.993 9.66667 153.59 9.13867 154.358 8.616C155.083 8.09333 155.654 7.608 156.07 7.16C156.497 6.712 156.795 6.27467 156.966 5.848L156.022 3.8H157.702L162.998 15H161.238ZM155.334 13.624C156.059 13.624 156.769 13.384 157.462 12.904C158.166 12.4133 158.795 11.7573 159.35 10.936L157.686 7.368C157.494 7.72 157.227 8.05067 156.886 8.36C156.555 8.65867 156.054 9.06933 155.382 9.592C154.763 10.0613 154.31 10.472 154.022 10.824C153.745 11.176 153.606 11.5707 153.606 12.008C153.606 12.488 153.766 12.8773 154.086 13.176C154.406 13.4747 154.822 13.624 155.334 13.624Z" fill="#919191"/>
<rect x="89" y="2" width="14" height="14" rx="7" fill="#919191"/>
</svg>
