<svg width="1558" height="342" viewBox="0 0 1558 342" fill="none" xmlns="http://www.w3.org/2000/svg">
<rect x="889" y="153" width="100" height="100" rx="50" fill="#801515"/>
<path d="M207.999 126.371C214.049 110.641 221.067 99.388 229.053 92.612C237.281 85.594 248.05 82.085 261.36 82.085C265.958 82.085 272.129 82.69 279.873 83.9V118.022H268.983C263.175 118.022 258.335 119.232 254.463 121.652C250.591 123.83 247.445 127.823 245.025 133.631L161.172 338H114.345L3.63 83.9H45.012L139.029 301.337L207.999 126.371ZM481.31 338L454.085 279.557C439.323 297.949 422.504 312.953 403.628 324.569C384.752 335.943 365.755 341.63 346.637 341.63C331.391 341.63 317.96 338.726 306.344 332.918C294.97 326.868 286.016 318.519 279.482 307.871C273.19 296.981 270.044 284.639 270.044 270.845C270.044 255.115 274.884 241.2 284.564 229.1C294.244 217 307.796 205.021 325.22 193.163C341.676 181.305 354.623 170.294 364.061 160.13C373.741 149.966 380.517 140.044 384.389 130.364L362.972 83.9H401.087L521.24 338H481.31ZM347.363 306.782C363.819 306.782 379.912 301.337 395.642 290.447C411.614 279.315 425.892 264.432 438.476 245.798L400.724 164.849C396.368 172.835 390.318 180.337 382.574 187.355C375.072 194.131 363.698 203.448 348.452 215.306C334.416 225.954 324.131 235.271 317.597 243.257C311.305 251.243 308.159 260.197 308.159 270.119C308.159 281.009 311.789 289.842 319.049 296.618C326.309 303.394 335.747 306.782 347.363 306.782ZM721.998 219.662C739.18 226.438 752.248 238.417 761.202 255.599C770.156 272.539 774.633 291.657 774.633 312.953V338H738.333V312.59C738.333 286.454 729.863 267.094 712.923 254.51C695.983 241.926 669.847 235.634 634.515 235.634H601.119V338H564.819V179.006C564.819 159.162 569.175 141.859 577.887 127.097C586.841 112.093 599.425 100.598 615.639 92.612C632.095 84.384 651.213 80.27 672.993 80.27C692.353 80.27 709.293 83.537 723.813 90.071C738.333 96.363 749.465 105.317 757.209 116.933C765.195 128.549 769.188 142.101 769.188 157.589C769.188 170.415 764.953 182.636 756.483 194.252C748.255 205.868 736.76 214.338 721.998 219.662ZM668.637 203.327C688.481 203.327 703.848 199.334 714.738 191.348C725.628 183.362 731.073 172.593 731.073 159.041C731.073 145.247 725.87 134.478 715.464 126.734C705.3 118.748 691.143 114.755 672.993 114.755C650.729 114.755 633.184 120.805 620.358 132.905C607.532 144.763 601.119 161.098 601.119 181.91V203.327H668.637ZM1306.67 171.02H1271.82V118.748H1201.4V338H1165.1V118.748H1094.68V200.06H1059.83V83.9H1306.67V171.02ZM1517.84 338L1490.62 279.557C1475.86 297.949 1459.04 312.953 1440.16 324.569C1421.29 335.943 1402.29 341.63 1383.17 341.63C1367.93 341.63 1354.49 338.726 1342.88 332.918C1331.5 326.868 1322.55 318.519 1316.02 307.871C1309.72 296.981 1306.58 284.639 1306.58 270.845C1306.58 255.115 1311.42 241.2 1321.1 229.1C1330.78 217 1344.33 205.021 1361.75 193.163C1378.21 181.305 1391.16 170.294 1400.6 160.13C1410.28 149.966 1417.05 140.044 1420.92 130.364L1399.51 83.9H1437.62L1557.77 338H1517.84ZM1383.9 306.782C1400.35 306.782 1416.45 301.337 1432.18 290.447C1448.15 279.315 1462.43 264.432 1475.01 245.798L1437.26 164.849C1432.9 172.835 1426.85 180.337 1419.11 187.355C1411.61 194.131 1400.23 203.448 1384.99 215.306C1370.95 225.954 1360.67 235.271 1354.13 243.257C1347.84 251.243 1344.69 260.197 1344.69 270.119C1344.69 281.009 1348.32 289.842 1355.58 296.618C1362.84 303.394 1372.28 306.782 1383.9 306.782Z" fill="url(#paint0_linear_968_108)"/>
<defs>
<linearGradient id="paint0_linear_968_108" x1="779" y1="0" x2="779" y2="337" gradientUnits="userSpaceOnUse">
<stop stop-color="#801515"/>
<stop offset="0.375" stop-color="#801515"/>
<stop offset="0.734375" stop-color="#8E1717" stop-opacity="0.583333"/>
<stop offset="1" stop-color="#801515" stop-opacity="0"/>
</linearGradient>
</defs>
</svg>
