<svg width="20" height="20" viewBox="0 0 20 20" fill="none" xmlns="http://www.w3.org/2000/svg">
<path d="M18.9461 6.30545C18.936 5.54807 18.7942 4.79822 18.5271 4.08945C18.2954 3.4916 17.9416 2.94864 17.4883 2.49528C17.0349 2.04191 16.4919 1.6881 15.8941 1.45645C15.1944 1.1938 14.4553 1.05179 13.7081 1.03645C12.7461 0.993445 12.4411 0.981445 9.99909 0.981445C7.55709 0.981445 7.24409 0.981445 6.28909 1.03645C5.54225 1.0519 4.80344 1.19391 4.10409 1.45645C3.50615 1.68793 2.96311 2.04169 2.50973 2.49508C2.05634 2.94847 1.70258 3.4915 1.47109 4.08945C1.20792 4.78858 1.06622 5.52756 1.05209 6.27445C1.00909 7.23745 0.996094 7.54245 0.996094 9.98445C0.996094 12.4264 0.996094 12.7384 1.05209 13.6944C1.06709 14.4424 1.20809 15.1804 1.47109 15.8814C1.70297 16.4792 2.05699 17.022 2.51053 17.4752C2.96407 17.9284 3.50716 18.282 4.10509 18.5134C4.80253 18.7866 5.54147 18.9388 6.29009 18.9634C7.25309 19.0064 7.55809 19.0194 10.0001 19.0194C12.4421 19.0194 12.7551 19.0194 13.7101 18.9634C14.4572 18.9487 15.1965 18.807 15.8961 18.5444C16.4938 18.3125 17.0366 17.9586 17.4899 17.5053C17.9433 17.052 18.2972 16.5091 18.5291 15.9114C18.7921 15.2114 18.9331 14.4734 18.9481 13.7244C18.9911 12.7624 19.0041 12.4574 19.0041 10.0144C19.0021 7.57245 19.0021 7.26245 18.9461 6.30545V6.30545ZM9.99309 14.6024C7.43909 14.6024 5.37009 12.5334 5.37009 9.97945C5.37009 7.42545 7.43909 5.35645 9.99309 5.35645C11.2192 5.35645 12.3951 5.84351 13.262 6.71049C14.129 7.57747 14.6161 8.75335 14.6161 9.97945C14.6161 11.2055 14.129 12.3814 13.262 13.2484C12.3951 14.1154 11.2192 14.6024 9.99309 14.6024V14.6024ZM14.8001 6.26344C14.6585 6.26358 14.5183 6.23578 14.3874 6.18166C14.2566 6.12753 14.1377 6.04813 14.0375 5.948C13.9374 5.84787 13.858 5.72898 13.8039 5.59813C13.7498 5.46729 13.722 5.32705 13.7221 5.18545C13.7221 5.04395 13.75 4.90383 13.8041 4.7731C13.8583 4.64238 13.9376 4.52359 14.0377 4.42354C14.1377 4.32348 14.2565 4.24411 14.3873 4.18997C14.518 4.13582 14.6581 4.10795 14.7996 4.10795C14.9411 4.10795 15.0812 4.13582 15.2119 4.18997C15.3427 4.24411 15.4614 4.32348 15.5615 4.42354C15.6616 4.52359 15.7409 4.64238 15.7951 4.7731C15.8492 4.90383 15.8771 5.04395 15.8771 5.18545C15.8771 5.78145 15.3951 6.26344 14.8001 6.26344Z" fill="white"/>
<path d="M9.99323 12.9816C11.6517 12.9816 12.9962 11.6371 12.9962 9.97859C12.9962 8.32008 11.6517 6.97559 9.99323 6.97559C8.33472 6.97559 6.99023 8.32008 6.99023 9.97859C6.99023 11.6371 8.33472 12.9816 9.99323 12.9816Z" fill="white"/>
</svg>
