<svg width="32" height="32" viewBox="0 0 32 32" fill="none" xmlns="http://www.w3.org/2000/svg">
<path d="M30.9118 9.84208C30.895 8.57979 30.6587 7.33004 30.2134 6.14875C29.8274 5.15234 29.2377 4.24741 28.4821 3.4918C27.7265 2.73619 26.8215 2.1465 25.8251 1.76042C24.659 1.32268 23.4271 1.08599 22.1818 1.06042C20.5784 0.98875 20.0701 0.96875 16.0001 0.96875C11.9301 0.96875 11.4084 0.96875 9.81678 1.06042C8.57205 1.08617 7.3407 1.32286 6.17512 1.76042C5.17855 2.14623 4.27349 2.73582 3.51784 3.49147C2.76219 4.24712 2.1726 5.15218 1.78678 6.14875C1.34817 7.31397 1.11199 8.5456 1.08845 9.79042C1.01678 11.3954 0.995117 11.9038 0.995117 15.9738C0.995117 20.0437 0.995117 20.5638 1.08845 22.1571C1.11345 23.4038 1.34845 24.6338 1.78678 25.8021C2.17325 26.7984 2.76328 27.703 3.51918 28.4584C4.27508 29.2137 5.18022 29.803 6.17678 30.1888C7.33917 30.6441 8.57074 30.8977 9.81845 30.9387C11.4235 31.0104 11.9318 31.0321 16.0018 31.0321C20.0718 31.0321 20.5934 31.0321 22.1851 30.9387C23.4304 30.9142 24.6624 30.6781 25.8284 30.2404C26.8246 29.8539 27.7293 29.264 28.4848 28.5085C29.2404 27.7529 29.8303 26.8482 30.2168 25.8521C30.6551 24.6854 30.8901 23.4554 30.9151 22.2071C30.9868 20.6037 31.0084 20.0954 31.0084 16.0237C31.0051 11.9537 31.0051 11.4371 30.9118 9.84208V9.84208ZM15.9901 23.6704C11.7335 23.6704 8.28512 20.2221 8.28512 15.9654C8.28512 11.7088 11.7335 8.26042 15.9901 8.26042C18.0336 8.26042 19.9934 9.07219 21.4384 10.5172C22.8833 11.9621 23.6951 13.9219 23.6951 15.9654C23.6951 18.0089 22.8833 19.9687 21.4384 21.4137C19.9934 22.8586 18.0336 23.6704 15.9901 23.6704V23.6704ZM24.0018 9.77208C23.7658 9.7723 23.532 9.72598 23.314 9.63577C23.0959 9.54555 22.8977 9.41322 22.7309 9.24634C22.564 9.07946 22.4316 8.88131 22.3414 8.66323C22.2512 8.44515 22.2049 8.21142 22.2051 7.97542C22.2051 7.73958 22.2516 7.50606 22.3418 7.28818C22.4321 7.0703 22.5643 6.87233 22.7311 6.70557C22.8979 6.53881 23.0958 6.40653 23.3137 6.31628C23.5316 6.22603 23.7651 6.17958 24.001 6.17958C24.2368 6.17958 24.4703 6.22603 24.6882 6.31628C24.9061 6.40653 25.104 6.53881 25.2708 6.70557C25.4376 6.87233 25.5698 7.0703 25.6601 7.28818C25.7503 7.50606 25.7968 7.73958 25.7968 7.97542C25.7968 8.96875 24.9934 9.77208 24.0018 9.77208Z" fill="#B11212"/>
<path d="M15.9904 20.9709C18.7545 20.9709 20.9954 18.7301 20.9954 15.9659C20.9954 13.2018 18.7545 10.9609 15.9904 10.9609C13.2262 10.9609 10.9854 13.2018 10.9854 15.9659C10.9854 18.7301 13.2262 20.9709 15.9904 20.9709Z" fill="#B11212"/>
</svg>
