<svg width="1891" height="679" viewBox="0 0 1891 679" fill="none" xmlns="http://www.w3.org/2000/svg">
<path d="M571.999 463.371C578.049 447.641 585.067 436.388 593.053 429.612C601.281 422.594 612.05 419.085 625.36 419.085C629.958 419.085 636.129 419.69 643.873 420.9V455.022H632.983C627.175 455.022 622.335 456.232 618.463 458.652C614.591 460.83 611.445 464.823 609.025 470.631L525.172 675H478.345L367.63 420.9H409.012L503.029 638.337L571.999 463.371ZM845.31 675L818.085 616.557C803.323 634.949 786.504 649.953 767.628 661.569C748.752 672.943 729.755 678.63 710.637 678.63C695.391 678.63 681.96 675.726 670.344 669.918C658.97 663.868 650.016 655.519 643.482 644.871C637.19 633.981 634.044 621.639 634.044 607.845C634.044 592.115 638.884 578.2 648.564 566.1C658.244 554 671.796 542.021 689.22 530.163C705.676 518.305 718.623 507.294 728.061 497.13C737.741 486.966 744.517 477.044 748.389 467.364L726.972 420.9H765.087L885.24 675H845.31ZM711.363 643.782C727.819 643.782 743.912 638.337 759.642 627.447C775.614 616.315 789.892 601.432 802.476 582.798L764.724 501.849C760.368 509.835 754.318 517.337 746.574 524.355C739.072 531.131 727.698 540.448 712.452 552.306C698.416 562.954 688.131 572.271 681.597 580.257C675.305 588.243 672.159 597.197 672.159 607.119C672.159 618.009 675.789 626.842 683.049 633.618C690.309 640.394 699.747 643.782 711.363 643.782ZM1086 556.662C1103.18 563.438 1116.25 575.417 1125.2 592.599C1134.16 609.539 1138.63 628.657 1138.63 649.953V675H1102.33V649.59C1102.33 623.454 1093.86 604.094 1076.92 591.51C1059.98 578.926 1033.85 572.634 998.515 572.634H965.119V675H928.819V516.006C928.819 496.162 933.175 478.859 941.887 464.097C950.841 449.093 963.425 437.598 979.639 429.612C996.095 421.384 1015.21 417.27 1036.99 417.27C1056.35 417.27 1073.29 420.537 1087.81 427.071C1102.33 433.363 1113.47 442.317 1121.21 453.933C1129.2 465.549 1133.19 479.101 1133.19 494.589C1133.19 507.415 1128.95 519.636 1120.48 531.252C1112.26 542.868 1100.76 551.338 1086 556.662ZM1032.64 540.327C1052.48 540.327 1067.85 536.334 1078.74 528.348C1089.63 520.362 1095.07 509.593 1095.07 496.041C1095.07 482.247 1089.87 471.478 1079.46 463.734C1069.3 455.748 1055.14 451.755 1036.99 451.755C1014.73 451.755 997.184 457.805 984.358 469.905C971.532 481.763 965.119 498.098 965.119 518.91V540.327H1032.64ZM1670.67 508.02H1635.82V455.748H1565.4V675H1529.1V455.748H1458.68V537.06H1423.83V420.9H1670.67V508.02ZM1881.84 675L1854.62 616.557C1839.86 634.949 1823.04 649.953 1804.16 661.569C1785.29 672.943 1766.29 678.63 1747.17 678.63C1731.93 678.63 1718.49 675.726 1706.88 669.918C1695.5 663.868 1686.55 655.519 1680.02 644.871C1673.72 633.981 1670.58 621.639 1670.58 607.845C1670.58 592.115 1675.42 578.2 1685.1 566.1C1694.78 554 1708.33 542.021 1725.75 530.163C1742.21 518.305 1755.16 507.294 1764.6 497.13C1774.28 486.966 1781.05 477.044 1784.92 467.364L1763.51 420.9H1801.62L1921.77 675H1881.84ZM1747.9 643.782C1764.35 643.782 1780.45 638.337 1796.18 627.447C1812.15 616.315 1826.43 601.432 1839.01 582.798L1801.26 501.849C1796.9 509.835 1790.85 517.337 1783.11 524.355C1775.61 531.131 1764.23 540.448 1748.99 552.306C1734.95 562.954 1724.67 572.271 1718.13 580.257C1711.84 588.243 1708.69 597.197 1708.69 607.119C1708.69 618.009 1712.32 626.842 1719.58 633.618C1726.84 640.394 1736.28 643.782 1747.9 643.782Z" fill="#D9D9D9"/>
<path d="M257.73 171.02H222.882V118.748H152.46V338H116.16V118.748H45.738V200.06H10.89V83.9H257.73V171.02ZM535.553 83.9V338H499.253V228.374H354.053V338H317.753V83.9H354.053V193.526H499.253V83.9H535.553ZM732.035 306.782C750.427 306.782 766.399 302.184 779.951 292.988C793.745 283.55 804.393 270.724 811.895 254.51H852.188C846.622 271.934 837.91 287.301 826.052 300.611C814.436 313.679 800.521 323.843 784.307 331.103C768.093 338.121 750.669 341.63 732.035 341.63C708.077 341.63 686.176 335.943 666.332 324.569C646.73 312.953 631.242 297.223 619.868 277.379C608.494 257.293 602.807 235.15 602.807 210.95C602.807 186.75 608.494 164.728 619.868 144.884C631.242 124.798 646.73 109.068 666.332 97.694C686.176 86.078 708.077 80.27 732.035 80.27C750.669 80.27 768.093 83.9 784.307 91.16C800.521 98.178 814.436 108.342 826.052 121.652C837.91 134.72 846.622 149.966 852.188 167.39H811.895C804.393 151.176 793.745 138.471 779.951 129.275C766.399 119.837 750.427 115.118 732.035 115.118C716.789 115.118 702.632 118.506 689.564 125.282C676.738 132.058 666.09 141.496 657.62 153.596C649.15 165.454 643.705 178.885 641.285 193.889H752V228.011H641.285C643.705 243.015 649.15 256.567 657.62 268.667C666.09 280.525 676.738 289.842 689.564 296.618C702.632 303.394 716.789 306.782 732.035 306.782ZM1095.79 338L1068.56 279.557C1053.8 297.949 1036.98 312.953 1018.1 324.569C999.228 335.943 980.231 341.63 961.113 341.63C945.867 341.63 932.436 338.726 920.82 332.918C909.446 326.868 900.492 318.519 893.958 307.871C887.666 296.981 884.52 284.639 884.52 270.845C884.52 255.115 889.36 241.2 899.04 229.1C908.72 217 922.272 205.021 939.696 193.163C956.152 181.305 969.099 170.294 978.537 160.13C988.217 149.966 994.993 140.044 998.865 130.364L977.448 83.9H1015.56L1135.72 338H1095.79ZM961.839 306.782C978.295 306.782 994.388 301.337 1010.12 290.447C1026.09 279.315 1040.37 264.432 1052.95 245.798L1015.2 164.849C1010.84 172.835 1004.79 180.337 997.05 187.355C989.548 194.131 978.174 203.448 962.928 215.306C948.892 225.954 938.607 235.271 932.073 243.257C925.781 251.243 922.635 260.197 922.635 270.119C922.635 281.009 926.265 289.842 933.525 296.618C940.785 303.394 950.223 306.782 961.839 306.782ZM1375.37 171.02H1340.52V118.748H1270.1V338H1233.8V118.748H1163.38V200.06H1128.53V83.9H1375.37V171.02ZM1581.85 219.662C1599.04 226.438 1612.1 238.417 1621.06 255.599C1630.01 272.539 1634.49 291.657 1634.49 312.953V338H1598.19V312.59C1598.19 286.454 1589.72 267.094 1572.78 254.51C1555.84 241.926 1529.7 235.634 1494.37 235.634H1460.98V338H1424.68V179.006C1424.68 159.162 1429.03 141.859 1437.74 127.097C1446.7 112.093 1459.28 100.598 1475.5 92.612C1491.95 84.384 1511.07 80.27 1532.85 80.27C1552.21 80.27 1569.15 83.537 1583.67 90.071C1598.19 96.363 1609.32 105.317 1617.07 116.933C1625.05 128.549 1629.04 142.101 1629.04 157.589C1629.04 170.415 1624.81 182.636 1616.34 194.252C1608.11 205.868 1596.62 214.338 1581.85 219.662ZM1528.49 203.327C1548.34 203.327 1563.7 199.334 1574.59 191.348C1585.48 183.362 1590.93 172.593 1590.93 159.041C1590.93 145.247 1585.73 134.478 1575.32 126.734C1565.16 118.748 1551 114.755 1532.85 114.755C1510.59 114.755 1493.04 120.805 1480.21 132.905C1467.39 144.763 1460.98 161.098 1460.98 181.91V203.327H1528.49ZM1811.04 306.782C1829.43 306.782 1845.4 302.184 1858.95 292.988C1872.75 283.55 1883.4 270.724 1890.9 254.51H1931.19C1925.63 271.934 1916.91 287.301 1905.06 300.611C1893.44 313.679 1879.52 323.843 1863.31 331.103C1847.1 338.121 1829.67 341.63 1811.04 341.63C1787.08 341.63 1765.18 335.943 1745.34 324.569C1725.73 312.953 1710.25 297.223 1698.87 277.379C1687.5 257.293 1681.81 235.15 1681.81 210.95C1681.81 186.75 1687.5 164.728 1698.87 144.884C1710.25 124.798 1725.73 109.068 1745.34 97.694C1765.18 86.078 1787.08 80.27 1811.04 80.27C1829.67 80.27 1847.1 83.9 1863.31 91.16C1879.52 98.178 1893.44 108.342 1905.06 121.652C1916.91 134.72 1925.63 149.966 1931.19 167.39H1890.9C1883.4 151.176 1872.75 138.471 1858.95 129.275C1845.4 119.837 1829.43 115.118 1811.04 115.118C1795.79 115.118 1781.64 118.506 1768.57 125.282C1755.74 132.058 1745.09 141.496 1736.62 153.596C1728.15 165.454 1722.71 178.885 1720.29 193.889H1831V228.011H1720.29C1722.71 243.015 1728.15 256.567 1736.62 268.667C1745.09 280.525 1755.74 289.842 1768.57 296.618C1781.64 303.394 1795.79 306.782 1811.04 306.782Z" fill="#D9D9D9"/>
<rect x="1230" y="488" width="125" height="125" rx="62.5" fill="#B11212"/>
</svg>
