<svg width="145" height="37" viewBox="0 0 145 37" fill="none" xmlns="http://www.w3.org/2000/svg">
<path d="M63.78 9.02664H62.052V6.43464H58.56V17.3066H56.76V6.43464H53.268V10.4666H51.54V4.70664H63.78V9.02664ZM77.0163 4.70664V17.3066H75.2163V11.8706H68.0163V17.3066H66.2163V4.70664H68.0163V10.1426H75.2163V4.70664H77.0163ZM86.2192 15.7586C87.1312 15.7586 87.9232 15.5306 88.5953 15.0746C89.2793 14.6066 89.8073 13.9706 90.1793 13.1666H92.1773C91.9013 14.0306 91.4693 14.7926 90.8812 15.4526C90.3053 16.1006 89.6152 16.6046 88.8112 16.9646C88.0072 17.3126 87.1432 17.4866 86.2192 17.4866C85.0312 17.4866 83.9452 17.2046 82.9612 16.6406C81.9892 16.0646 81.2212 15.2846 80.6572 14.3006C80.0932 13.3046 79.8112 12.2066 79.8112 11.0066C79.8112 9.80664 80.0932 8.71464 80.6572 7.73064C81.2212 6.73464 81.9892 5.95464 82.9612 5.39064C83.9452 4.81464 85.0312 4.52664 86.2192 4.52664C87.1432 4.52664 88.0072 4.70664 88.8112 5.06664C89.6152 5.41464 90.3053 5.91864 90.8812 6.57864C91.4693 7.22664 91.9013 7.98264 92.1773 8.84664H90.1793C89.8073 8.04264 89.2793 7.41264 88.5953 6.95664C87.9232 6.48864 87.1312 6.25464 86.2192 6.25464C85.4632 6.25464 84.7612 6.42264 84.1132 6.75864C83.4772 7.09464 82.9492 7.56264 82.5292 8.16264C82.1092 8.75064 81.8392 9.41664 81.7192 10.1606H87.2092V11.8526H81.7192C81.8392 12.5966 82.1092 13.2686 82.5292 13.8686C82.9492 14.4566 83.4772 14.9186 84.1132 15.2546C84.7612 15.5906 85.4632 15.7586 86.2192 15.7586ZM103.717 17.3066L102.367 14.4086C101.635 15.3206 100.801 16.0646 99.8645 16.6406C98.9285 17.2046 97.9865 17.4866 97.0385 17.4866C96.2825 17.4866 95.6165 17.3426 95.0405 17.0546C94.4765 16.7546 94.0325 16.3406 93.7085 15.8126C93.3965 15.2726 93.2405 14.6606 93.2405 13.9766C93.2405 13.1966 93.4805 12.5066 93.9605 11.9066C94.4405 11.3066 95.1125 10.7126 95.9765 10.1246C96.7925 9.53664 97.4345 8.99064 97.9025 8.48664C98.3825 7.98264 98.7185 7.49064 98.9105 7.01064L97.8485 4.70664H99.7385L105.697 17.3066H103.717ZM97.0745 15.7586C97.8905 15.7586 98.6885 15.4886 99.4685 14.9486C100.261 14.3966 100.969 13.6586 101.593 12.7346L99.7205 8.72064C99.5045 9.11664 99.2045 9.48864 98.8205 9.83664C98.4485 10.1726 97.8845 10.6346 97.1285 11.2226C96.4325 11.7506 95.9225 12.2126 95.5985 12.6086C95.2865 13.0046 95.1305 13.4486 95.1305 13.9406C95.1305 14.4806 95.3105 14.9186 95.6705 15.2546C96.0305 15.5906 96.4985 15.7586 97.0745 15.7586ZM117.04 9.02664H115.312V6.43464H111.82V17.3066H110.02V6.43464H106.528V10.4666H104.8V4.70664H117.04V9.02664ZM126.739 11.4386C127.591 11.7746 128.239 12.3686 128.683 13.2206C129.127 14.0606 129.349 15.0086 129.349 16.0646V17.3066H127.549V16.0466C127.549 14.7506 127.129 13.7906 126.289 13.1666C125.449 12.5426 124.153 12.2306 122.401 12.2306H120.745V17.3066H118.945V9.42264C118.945 8.43864 119.161 7.58064 119.593 6.84864C120.037 6.10464 120.661 5.53464 121.465 5.13864C122.281 4.73064 123.229 4.52664 124.309 4.52664C125.269 4.52664 126.109 4.68864 126.829 5.01264C127.549 5.32464 128.101 5.76864 128.485 6.34464C128.881 6.92064 129.079 7.59264 129.079 8.36064C129.079 8.99664 128.869 9.60264 128.449 10.1786C128.041 10.7546 127.471 11.1746 126.739 11.4386ZM124.093 10.6286C125.077 10.6286 125.839 10.4306 126.379 10.0346C126.919 9.63864 127.189 9.10464 127.189 8.43264C127.189 7.74864 126.931 7.21464 126.415 6.83064C125.911 6.43464 125.209 6.23664 124.309 6.23664C123.205 6.23664 122.335 6.53664 121.699 7.13664C121.063 7.72464 120.745 8.53464 120.745 9.56664V10.6286H124.093ZM137.564 15.7586C138.476 15.7586 139.268 15.5306 139.94 15.0746C140.624 14.6066 141.152 13.9706 141.524 13.1666H143.522C143.246 14.0306 142.814 14.7926 142.226 15.4526C141.65 16.1006 140.96 16.6046 140.156 16.9646C139.352 17.3126 138.488 17.4866 137.564 17.4866C136.376 17.4866 135.29 17.2046 134.306 16.6406C133.334 16.0646 132.566 15.2846 132.002 14.3006C131.438 13.3046 131.156 12.2066 131.156 11.0066C131.156 9.80664 131.438 8.71464 132.002 7.73064C132.566 6.73464 133.334 5.95464 134.306 5.39064C135.29 4.81464 136.376 4.52664 137.564 4.52664C138.488 4.52664 139.352 4.70664 140.156 5.06664C140.96 5.41464 141.65 5.91864 142.226 6.57864C142.814 7.22664 143.246 7.98264 143.522 8.84664H141.524C141.152 8.04264 140.624 7.41264 139.94 6.95664C139.268 6.48864 138.476 6.25464 137.564 6.25464C136.808 6.25464 136.106 6.42264 135.458 6.75864C134.822 7.09464 134.294 7.56264 133.874 8.16264C133.454 8.75064 133.184 9.41664 133.064 10.1606H138.554V11.8526H133.064C133.184 12.5966 133.454 13.2686 133.874 13.8686C134.294 14.4566 134.822 14.9186 135.458 15.2546C136.106 15.5906 136.808 15.7586 137.564 15.7586ZM61.314 24.8126C61.614 24.0326 61.962 23.4746 62.358 23.1386C62.766 22.7906 63.3 22.6166 63.96 22.6166C64.188 22.6166 64.494 22.6466 64.878 22.7066V24.3986H64.338C64.05 24.3986 63.81 24.4586 63.618 24.5786C63.426 24.6866 63.27 24.8846 63.15 25.1726L58.992 35.3066H56.67L51.18 22.7066H53.232L57.894 33.4886L61.314 24.8126ZM74.3266 35.3066L72.9766 32.4086C72.2446 33.3206 71.4106 34.0646 70.4746 34.6406C69.5386 35.2046 68.5966 35.4866 67.6486 35.4866C66.8926 35.4866 66.2266 35.3426 65.6506 35.0546C65.0866 34.7546 64.6426 34.3406 64.3186 33.8126C64.0066 33.2726 63.8506 32.6606 63.8506 31.9766C63.8506 31.1966 64.0906 30.5066 64.5706 29.9066C65.0506 29.3066 65.7226 28.7126 66.5866 28.1246C67.4026 27.5366 68.0446 26.9906 68.5126 26.4866C68.9926 25.9826 69.3286 25.4906 69.5206 25.0106L68.4586 22.7066H70.3486L76.3066 35.3066H74.3266ZM67.6846 33.7586C68.5006 33.7586 69.2986 33.4886 70.0786 32.9486C70.8706 32.3966 71.5786 31.6586 72.2026 30.7346L70.3306 26.7206C70.1146 27.1166 69.8146 27.4886 69.4306 27.8366C69.0586 28.1726 68.4946 28.6346 67.7386 29.2226C67.0426 29.7506 66.5326 30.2126 66.2086 30.6086C65.8966 31.0046 65.7406 31.4486 65.7406 31.9406C65.7406 32.4806 65.9206 32.9186 66.2806 33.2546C66.6406 33.5906 67.1086 33.7586 67.6846 33.7586ZM85.7216 29.4386C86.5736 29.7746 87.2216 30.3686 87.6656 31.2206C88.1096 32.0606 88.3316 33.0086 88.3316 34.0646V35.3066H86.5316V34.0466C86.5316 32.7506 86.1116 31.7906 85.2716 31.1666C84.4316 30.5426 83.1356 30.2306 81.3836 30.2306H79.7276V35.3066H77.9276V27.4226C77.9276 26.4386 78.1436 25.5806 78.5756 24.8486C79.0196 24.1046 79.6436 23.5346 80.4476 23.1386C81.2636 22.7306 82.2116 22.5266 83.2916 22.5266C84.2516 22.5266 85.0916 22.6886 85.8116 23.0126C86.5316 23.3246 87.0836 23.7686 87.4676 24.3446C87.8636 24.9206 88.0616 25.5926 88.0616 26.3606C88.0616 26.9966 87.8516 27.6026 87.4316 28.1786C87.0236 28.7546 86.4536 29.1746 85.7216 29.4386ZM83.0756 28.6286C84.0596 28.6286 84.8216 28.4306 85.3616 28.0346C85.9016 27.6386 86.1716 27.1046 86.1716 26.4326C86.1716 25.7486 85.9136 25.2146 85.3976 24.8306C84.8936 24.4346 84.1916 24.2366 83.2916 24.2366C82.1876 24.2366 81.3176 24.5366 80.6816 25.1366C80.0456 25.7246 79.7276 26.5346 79.7276 27.5666V28.6286H83.0756ZM101.932 27.0266H100.204V24.4346H96.7123V35.3066H94.9123V24.4346H91.4203V28.4666H89.6923V22.7066H101.932V27.0266ZM111.864 35.3066L110.514 32.4086C109.782 33.3206 108.948 34.0646 108.012 34.6406C107.076 35.2046 106.134 35.4866 105.186 35.4866C104.43 35.4866 103.764 35.3426 103.188 35.0546C102.624 34.7546 102.18 34.3406 101.856 33.8126C101.544 33.2726 101.388 32.6606 101.388 31.9766C101.388 31.1966 101.628 30.5066 102.108 29.9066C102.588 29.3066 103.26 28.7126 104.124 28.1246C104.94 27.5366 105.582 26.9906 106.05 26.4866C106.53 25.9826 106.866 25.4906 107.058 25.0106L105.996 22.7066H107.886L113.844 35.3066H111.864ZM105.222 33.7586C106.038 33.7586 106.836 33.4886 107.616 32.9486C108.408 32.3966 109.116 31.6586 109.74 30.7346L107.868 26.7206C107.652 27.1166 107.352 27.4886 106.968 27.8366C106.596 28.1726 106.032 28.6346 105.276 29.2226C104.58 29.7506 104.07 30.2126 103.746 30.6086C103.434 31.0046 103.278 31.4486 103.278 31.9406C103.278 32.4806 103.458 32.9186 103.818 33.2546C104.178 33.5906 104.646 33.7586 105.222 33.7586Z" fill="#B11212"/>
<rect x="1" y="3" width="33" height="33" rx="16.5" stroke="#B11212" stroke-width="2"/>
</svg>
