<svg width="30" height="30" viewBox="0 0 30 30" fill="none" xmlns="http://www.w3.org/2000/svg">
<path d="M19.9051 21.7174L22.3661 10.2024C22.4665 9.71497 22.4079 9.36603 22.1903 9.15556C21.9727 8.94508 21.6853 8.90631 21.3281 9.03924L6.86384 14.5725C6.54018 14.6943 6.31975 14.8328 6.20257 14.9879C6.08538 15.1429 6.07143 15.2897 6.16071 15.4282C6.25 15.5667 6.42857 15.6747 6.69643 15.7522L10.3962 16.8987L18.9844 11.5317C19.2188 11.3766 19.3973 11.3434 19.5201 11.432C19.5982 11.4874 19.5759 11.5705 19.4531 11.6812L12.5056 17.9123L12.2377 21.7008C12.4944 21.7008 12.7455 21.579 12.9911 21.3353L14.7991 19.6072L18.5491 22.3489C19.2634 22.7477 19.7154 22.5372 19.9051 21.7174ZM30 14.8882C30 16.9043 29.6038 18.8318 28.8114 20.6706C28.019 22.5095 26.9531 24.0936 25.6138 25.4229C24.2746 26.7522 22.6786 27.8101 20.8259 28.5966C18.9732 29.3831 17.0312 29.7763 15 29.7763C12.9688 29.7763 11.0268 29.3831 9.17411 28.5966C7.32143 27.8101 5.72545 26.7522 4.38616 25.4229C3.04688 24.0936 1.98103 22.5095 1.18862 20.6706C0.396205 18.8318 0 16.9043 0 14.8882C0 12.8721 0.396205 10.9446 1.18862 9.10571C1.98103 7.26684 3.04688 5.68276 4.38616 4.35346C5.72545 3.02416 7.32143 1.96626 9.17411 1.17975C11.0268 0.393251 12.9688 0 15 0C17.0312 0 18.9732 0.393251 20.8259 1.17975C22.6786 1.96626 24.2746 3.02416 25.6138 4.35346C26.9531 5.68276 28.019 7.26684 28.8114 9.10571C29.6038 10.9446 30 12.8721 30 14.8882Z" fill="#B11212"/>
</svg>
